<svg width="512" height="512" viewBox="0 0 1024 1024" xmlns="http://www.w3.org/2000/svg">
    <!-- 主体部分：使用了高阶曲线确保边缘像气泡一样圆润 -->
    <path d="M512 160 C240 160 80 320 80 520 
             C80 670 180 800 320 845 
             C330 870 330 910 325 930 
             C320 955 370 960 410 920 
             C440 890 470 865 512 865 
             C780 865 944 710 944 520 
             C944 320 784 160 512 160 Z 
             
             M380 420 C405 420 425 455 425 500 
             C425 545 405 580 380 580 
             C355 580 335 545 335 500 
             C335 455 355 420 380 420 Z 
             
             M644 420 C669 420 689 455 689 500 
             C689 545 669 580 644 580 
             C619 580 599 545 599 500 
             C599 455 619 420 644 420 Z" 
          fill="#2EE59D" fill-rule="evenodd"/>
</svg>